<?xml version="1.0" encoding="utf-8"?>
<!-- Generator: Adobe Illustrator 20.1.0, SVG Export Plug-In . SVG Version: 6.00 Build 0)  -->
<svg version="1.1" id="Layer_1" xmlns="http://www.w3.org/2000/svg" xmlns:xlink="http://www.w3.org/1999/xlink" x="0px" y="0px"
	 viewBox="0 0 100 100" style="enable-background:new 0 0 100 100;" xml:space="preserve">
<style type="text/css">
	.st0{fill:#FFFFFF;}
</style>
<circle cx="50" cy="50" r="50"/>
<g>
	<g>
		<path class="st0" d="M44.1,47.9c0,0,5.8-0.4,5.8-7.3c0-6.8-4.8-10.2-10.8-10.2H27.9h-0.3h-8.4v38.3h8.4h0.3h11.1
			c0,0,12.2,0.4,12.2-11.3C51.2,57.4,51.7,47.9,44.1,47.9z M27.9,37.3h9.7h1.4c0,0,2.7,0,2.7,4s-1.6,4.6-3.4,4.6H27.9V37.3z
			 M38.6,61.9H27.9V51.7h11.1c0,0,4-0.1,4,5.3C43.1,61.4,40.1,61.9,38.6,61.9z"/>
		<rect x="59.2" y="32.7" class="st0" width="15.8" height="4.7"/>
		<path class="st0" d="M67.4,40.2c-14.7,0-14.7,14.7-14.7,14.7s-1,14.6,14.7,14.6c0,0,13.1,0.7,13.1-10.2h-6.7c0,0,0.2,4.1-6.1,4.1
			c0,0-6.7,0.5-6.7-6.7h19.8C80.7,56.8,82.9,40.2,67.4,40.2z M73.4,51.7H60.8c0,0,0.8-5.9,6.7-5.9C73.5,45.8,73.4,51.7,73.4,51.7z"
			/>
	</g>
</g>
</svg>
