<?xml version="1.0" encoding="utf-8"?>
<!-- Generator: Adobe Illustrator 20.1.0, SVG Export Plug-In . SVG Version: 6.00 Build 0)  -->
<svg version="1.1" id="Layer_1" xmlns="http://www.w3.org/2000/svg" xmlns:xlink="http://www.w3.org/1999/xlink" x="0px" y="0px"
	 viewBox="0 0 100 100" style="enable-background:new 0 0 100 100;" xml:space="preserve">
<style type="text/css">
	.st0{fill:#FFFFFF;}
</style>
<circle cx="50" cy="50" r="50"/>
<g>
	<path class="st0" d="M50,24.6c8.3,0,9.3,0,12.5,0.2c3,0.1,4.7,0.6,5.8,1.1c1.4,0.6,2.5,1.2,3.6,2.3c1.1,1.1,1.8,2.1,2.3,3.6
		c0.4,1.1,0.9,2.7,1.1,5.8c0.1,3.3,0.2,4.2,0.2,12.5s0,9.3-0.2,12.5c-0.1,3-0.6,4.7-1.1,5.8c-0.6,1.4-1.2,2.5-2.3,3.6
		c-1.1,1.1-2.1,1.8-3.6,2.3c-1.1,0.4-2.7,0.9-5.8,1.1c-3.3,0.1-4.2,0.2-12.5,0.2s-9.3,0-12.5-0.2c-3-0.1-4.7-0.6-5.8-1.1
		c-1.4-0.6-2.5-1.2-3.6-2.3c-1.1-1.1-1.8-2.1-2.3-3.6c-0.4-1.1-0.9-2.7-1.1-5.8c-0.1-3.3-0.2-4.2-0.2-12.5s0-9.3,0.2-12.5
		c0.1-3,0.6-4.7,1.1-5.8c0.6-1.4,1.2-2.5,2.3-3.6c1.1-1.1,2.1-1.8,3.6-2.3c1.1-0.4,2.7-0.9,5.8-1.1C40.7,24.6,41.7,24.6,50,24.6
		 M50,19c-8.4,0-9.5,0-12.8,0.2c-3.3,0.2-5.6,0.7-7.5,1.4c-2,0.8-3.8,1.9-5.5,3.6c-1.7,1.7-2.8,3.5-3.6,5.5c-0.8,2-1.3,4.2-1.4,7.5
		C19,40.5,19,41.6,19,50c0,8.4,0,9.5,0.2,12.8c0.2,3.3,0.7,5.6,1.4,7.5c0.8,2,1.9,3.8,3.6,5.5c1.7,1.7,3.5,2.8,5.5,3.6
		c2,0.8,4.2,1.3,7.5,1.4C40.5,81,41.6,81,50,81s9.5,0,12.8-0.2c3.3-0.2,5.6-0.7,7.5-1.4c2-0.8,3.8-1.9,5.5-3.6
		c1.7-1.7,2.8-3.5,3.6-5.5c0.8-2,1.3-4.2,1.4-7.5C81,59.5,81,58.4,81,50s0-9.5-0.2-12.8c-0.2-3.3-0.7-5.6-1.4-7.5
		c-0.8-2-1.9-3.8-3.6-5.5c-1.7-1.7-3.5-2.8-5.5-3.6c-2-0.8-4.2-1.3-7.5-1.4C59.5,19,58.4,19,50,19L50,19z"/>
	<path class="st0" d="M50,34.1c-8.8,0-15.9,7.1-15.9,15.9S41.2,65.9,50,65.9S65.9,58.8,65.9,50S58.8,34.1,50,34.1z M50,60.3
		c-5.7,0-10.3-4.6-10.3-10.3S44.3,39.7,50,39.7S60.3,44.3,60.3,50S55.7,60.3,50,60.3z"/>
	<circle class="st0" cx="66.5" cy="33.5" r="3.7"/>
</g>
</svg>
