<?xml version="1.0" encoding="utf-8"?>
<!-- Generator: Adobe Illustrator 20.1.0, SVG Export Plug-In . SVG Version: 6.00 Build 0)  -->
<svg version="1.1" id="Layer_1" xmlns="http://www.w3.org/2000/svg" xmlns:xlink="http://www.w3.org/1999/xlink" x="0px" y="0px"
	 viewBox="0 0 100 100" style="enable-background:new 0 0 100 100;" xml:space="preserve">
<style type="text/css">
	.st0{fill:#FFFFFF;}
</style>
<circle cx="50" cy="50" r="50"/>
<g>
	<path class="st0" d="M26.6,38h10.8v34.9H26.6V38z M32,20.7c3.5,0,6.3,2.8,6.3,6.3c0,3.5-2.8,6.3-6.3,6.3c-3.5,0-6.3-2.8-6.3-6.3
		C25.8,23.5,28.6,20.7,32,20.7"/>
	<path class="st0" d="M44.3,38h10.4v4.8h0.1c1.4-2.7,5-5.6,10.3-5.6c11,0,13,7.2,13,16.6v19.1H67.2v-17c0-4-0.1-9.2-5.6-9.2
		c-5.6,0-6.5,4.4-6.5,9v17.2H44.3V38z"/>
</g>
</svg>
