<?xml version="1.0" encoding="utf-8"?>
<!-- Generator: Adobe Illustrator 20.1.0, SVG Export Plug-In . SVG Version: 6.00 Build 0)  -->
<svg version="1.1" id="Layer_1" xmlns="http://www.w3.org/2000/svg" xmlns:xlink="http://www.w3.org/1999/xlink" x="0px" y="0px"
	 viewBox="0 0 792 202" style="enable-background:new 0 0 792 202;" xml:space="preserve">
<style type="text/css">
	.st0{fill:#434345;}
</style>
<g>
	<path class="st0" d="M112.5,67c-8.3-3-18.1-4-27.9-4c-12.7,0-22.1,0.5-32.1,1.1c-1.4,0.1-1.4,3.6-0.2,4.2l2.3,0.2
		c5.5,0.6,5.8,2.9,5.8,14.3v42.5c0,11-0.7,12-6.1,12.8l-3.7,0.6c-1,0.6-1,3.5,0,4.2c6.8-0.2,13-0.4,18.7-0.4
		c4.3,0,10.3,0.7,15.9,0.7c12.4,0,22.2-1.6,30.3-5.6c13.8-6.8,21.5-19.8,21.5-35.9C136.9,86.7,128.2,72.6,112.5,67z M89.7,137.7
		c-4.3,0-7.8-1.1-10-3.5c-2.2-2.5-2.4-6.8-2.4-13.4V77c0-3.7,0.1-6,0.8-7c0.7-1,3-1.6,6.2-1.6c21.7,0,33.1,12.8,33.1,34.4
		C117.6,119.2,110.5,137.7,89.7,137.7z"/>
	<path class="st0" d="M296.9,138.4c-4-0.5-4.4-1.4-4.4-9.8V108c0-8.3-5-15.1-14.5-15.1c-6.5,0-11,3.2-13.7,4.7c-2.3,1.2-3.4,2-3.8,2
		c-0.7,0-1.4-0.5-2.9-2.2c-2.8-3.1-6.5-4.6-10.8-4.6c-5.8,0-11.2,3.2-13.8,4.8c-0.7,0.4-1.9,1-2.3,1c-0.4,0-0.6-0.2-0.6-1
		c0-0.8,0.4-3.7,0.4-5.4c-0.5-0.7-1.2-1.1-2.2-1.1c-3.7,2.2-12.2,5.4-17.7,7c-0.8,0.7-0.8,2.9,0,3.6l1.7,1.1
		c2.3,1.4,2.3,2.9,2.3,7.7v18.1c0,8.4-0.5,9.4-4.4,9.8l-1.9,0.2c-1,0.7-1,3.5,0.2,4.2c3.6-0.2,8.3-0.4,13.7-0.4
		c5.8,0,9.6,0.1,13.3,0.4c1.1-0.7,1.1-3.5,0.1-4.2l-1.9-0.2c-3-0.4-3.5-1.4-3.5-8v-21.5c0-2.2,0.2-3.6,1-4.4c1-1.3,3.4-2.9,6.5-2.9
		c5.8,0,8.2,3.8,8.2,8.4v20.4c0,6.6-0.5,7.7-3.2,8l-1.9,0.2c-1,0.7-1,3.5,0.1,4.2c3.1-0.2,7.9-0.4,12.7-0.4c5.4,0,9.2,0.1,13,0.4
		c1.1-0.7,1.1-3.5,0.1-4.2l-1.9-0.2c-2.8-0.4-3.2-1.4-3.2-8v-22.2c0-1.7,0.4-2.9,0.8-3.6c0.8-1.4,3.4-3,6.7-3c5.5,0,8,3.8,8,8.4
		v20.4c0,6.6-0.5,7.7-3.5,8l-1.9,0.2c-1,0.7-1,3.5,0.1,4.2c3.2-0.2,8.3-0.4,13.1-0.4c5.8,0,10.3,0.1,14,0.4c1.1-0.7,1.1-3.5,0.1-4.2
		L296.9,138.4z"/>
	<path class="st0" d="M439.6,138.4c-4-0.4-4.4-1.4-4.4-9.8v-22.1c0-5.4,0.1-10.7,0.4-14.3c-0.5-0.7-1.2-1.1-2.2-1.1
		c-3.6,2.2-12.1,5.4-17.7,7c-0.8,0.7-0.8,2.9,0,3.6l1.7,1.1c2.3,1.4,2.3,2.9,2.3,7.7v18.1c0,8.4-0.5,9.5-4.4,9.8l-2.3,0.2
		c-0.1,0.1-0.3,0.3-0.4,0.5c0,0-0.1-0.1-0.1-0.1c-1.8-0.1-4.9-0.8-8-3.4c-5.8-4.9-10.7-13.9-18.6-30c-0.6-1.3-0.6-2,0.6-2.6
		c5.5-2.8,12.7-7.3,12.7-18c0-7.7-3.6-13.7-10.6-17.7C384,64.6,375.2,63,365,63c-11.4,0-20.7,0.5-29.7,1.1c-1.4,0.6-1.4,3.6-0.2,4.2
		l3.2,0.5c5,0.7,5.3,2,5.3,14v42.5c0,11-0.7,11.9-6.1,12.8l-3.2,0.6c-1,0.6-1,3.5,0,4.2c6.2-0.2,11.5-0.4,17.5-0.4
		c5.8,0,11.3,0.1,17.6,0.4c0.8-0.7,0.8-3.6,0-4.2l-3.2-0.6c-5.4-1-6.1-1.8-6.1-12.8v-14.7c0-2.4,0.2-2.6,4.4-2.6c3,0,4.9,1,6.4,4.2
		c2.8,6.4,5.5,12.2,9.4,18.6c5.3,8.6,12.2,12.6,23.3,12.6c3.5,0,7.1-0.2,9.1-1c0.1,0.2,0.3,0.5,0.5,0.6c4-0.2,9-0.4,14.4-0.4
		c5.5,0,10.2,0.1,14.4,0.4c1.1-0.7,1.1-3.5,0.1-4.2L439.6,138.4z M376.6,99.2c-2.3,2.3-4.8,3.4-9.1,3.4c-7.1,0-7.4-0.4-7.4-4.6V74.6
		c0-5.8,0.2-6.1,5.2-6.1c9.4,0,15.7,7,15.7,17.7C380.9,93.3,378.6,97.2,376.6,99.2z"/>
	<path class="st0" d="M427.2,83.1c4.6,0,9-3,9-8.8c0-4.8-3.4-8.5-8.4-8.5c-4.8,0-9,3.5-9,8.8C418.8,79.5,421.9,83.1,427.2,83.1z"/>
	<path class="st0" d="M491.1,128.7c-2.6,4.4-6.2,5.9-10.7,5.9c-11,0-17.1-9.6-17.1-19.1c0-8.3,4.2-17.1,12-17.1c4.3,0,9,4.2,12.4,9
		c0.2,0.4,1.3,0.6,1.9,0.6c1.4,0,3.1-3.2,3.1-6.8c0-3.2-1-4.9-2.5-6.2c-3.2-1.2-8.5-2-12.6-2c-16.2,0-30,10.1-30,27.1
		c0,14.2,10.3,24.2,25.4,24.2c11.4,0,18.6-6.8,21.2-12.8C494.2,129.4,492.5,128.6,491.1,128.7z"/>
	<path class="st0" d="M555.3,138.4c-4.3-0.5-4.8-1.4-4.8-9.8V108c0-8.3-5-15.1-15.1-15.1c-6,0-11.2,3-13.8,4.8c-1.2,0.7-1.8,1-1.9,1
		c-0.6,0-0.8-0.4-0.8-1.4V75.1c0-7.6,0.1-12.6,0.4-17.5c-0.5-0.6-1.3-0.8-2-0.8c-6.4,2.6-13.3,5.5-18.3,6.7c-0.8,0.7-0.8,2.9,0,3.6
		l2,1.2c2.4,1.4,2.4,2.8,2.4,7.6v52.8c0,8.4-0.5,9.4-4.4,9.8l-2.2,0.2c-1,0.7-1,3.5,0.1,4.2c4.1-0.2,9.1-0.4,14-0.4
		c5.8,0,9.6,0.1,13.3,0.4c1.1-0.7,1.1-3.5,0.1-4.2l-2.2-0.4c-2.8-0.5-3.2-1.3-3.2-7.9v-21.5c0-2.2,0.2-3.6,1-4.4
		c1-1.3,3.4-2.9,6.7-2.9c5.9,0,8.4,3.8,8.4,8v20.7c0,6.6-0.5,7.4-3.2,7.9l-2.2,0.4c-1,0.7-1,3.5,0.1,4.2c2.6-0.2,7.8-0.4,13-0.4
		c5.8,0,10.8,0.1,14.5,0.4c1.1-0.7,1.1-3.5,0.1-4.2L555.3,138.4z"/>
	<path class="st0" d="M589.4,138.4c-4-0.4-4.4-1.4-4.4-9.8v-22.1c0-5.4,0.1-10.7,0.4-14.3c-0.5-0.7-1.2-1.1-2.2-1.1
		c-3.6,2.2-12.1,5.4-17.7,7c-0.8,0.7-0.8,2.9,0,3.6l1.7,1.1c2.3,1.4,2.3,2.9,2.3,7.7v18.1c0,8.4-0.5,9.5-4.4,9.8l-2.3,0.2
		c-1,0.7-1,3.5,0.1,4.2c4-0.2,9-0.4,14.4-0.4c5.5,0,10.2,0.1,14.4,0.4c1.1-0.7,1.1-3.5,0.1-4.2L589.4,138.4z"/>
	<path class="st0" d="M576.9,83.1c4.6,0,9-3,9-8.8c0-4.8-3.4-8.5-8.4-8.5c-4.8,0-9,3.5-9,8.8C568.5,79.5,571.6,83.1,576.9,83.1z"/>
	<path class="st0" d="M640.8,128.7c-2.6,4.4-6.2,5.9-10.7,5.9c-11,0-17.1-9.6-17.1-19.1c0-8.3,4.2-17.1,12-17.1c4.3,0,9,4.2,12.4,9
		c0.2,0.4,1.3,0.6,1.9,0.6c1.4,0,3.1-3.2,3.1-6.8c0-3.2-1-4.9-2.5-6.2c-3.2-1.2-8.5-2-12.6-2c-16.2,0-30,10.1-30,27.1
		c0,14.2,10.3,24.2,25.4,24.2c11.4,0,18.6-6.8,21.2-12.8C643.9,129.4,642.3,128.6,640.8,128.7z"/>
	<path class="st0" d="M705.1,138.4c-4.3-0.5-4.8-1.4-4.8-9.8V108c0-8.3-5-15.1-15.1-15.1c-6,0-11.2,3-13.8,4.8c-1.2,0.7-1.8,1-1.9,1
		c-0.6,0-0.8-0.4-0.8-1.4V75.1c0-7.6,0.1-12.6,0.4-17.5c-0.5-0.6-1.3-0.8-2-0.8c-6.4,2.6-13.3,5.5-18.3,6.7c-0.8,0.7-0.8,2.9,0,3.6
		l2,1.2c2.4,1.4,2.4,2.8,2.4,7.6v52.8c0,8.4-0.5,9.4-4.4,9.8l-2.2,0.2c-1,0.7-1,3.5,0.1,4.2c4.1-0.2,9.1-0.4,14-0.4
		c5.8,0,9.6,0.1,13.3,0.4c1.1-0.7,1.1-3.5,0.1-4.2l-2.2-0.4c-2.8-0.5-3.2-1.3-3.2-7.9v-21.5c0-2.2,0.2-3.6,1-4.4
		c1-1.3,3.4-2.9,6.7-2.9c5.9,0,8.4,3.8,8.4,8v20.7c0,6.6-0.5,7.4-3.2,7.9l-2.2,0.4c-1,0.7-1,3.5,0.1,4.2c2.6-0.2,7.8-0.4,13-0.4
		c5.8,0,10.8,0.1,14.5,0.4c1.1-0.7,1.1-3.5,0.1-4.2L705.1,138.4z"/>
	<path class="st0" d="M726.7,83.1c4.6,0,9-3,9-8.8c0-4.8-3.4-8.5-8.4-8.5c-4.8,0-9,3.5-9,8.8C718.3,79.5,721.4,83.1,726.7,83.1z"/>
	<path class="st0" d="M741.4,138.7l-2.3-0.2c-4-0.4-4.4-1.4-4.4-9.8v-22.1c0-5.4,0.1-10.7,0.4-14.3c-0.5-0.7-1.2-1.1-2.2-1.1
		c-3.6,2.2-12.1,5.4-17.7,7c-0.8,0.7-0.8,2.9,0,3.6l1.7,1.1c2.3,1.4,2.3,2.9,2.3,7.7v18.1c0,8.4-0.5,9.5-4.4,9.8l-2.3,0.2
		c-1,0.7-1,3.5,0.1,4.2c4-0.2,9-0.4,14.4-0.4c5.5,0,10.2,0.1,14.4,0.4C742.4,142.1,742.4,139.4,741.4,138.7z"/>
	<path class="st0" d="M199.5,85.4c-2.7,5.5-7,9.5-9.8,11.7c-4.5-2.8-10-4.3-15.8-4.3c-5.3,0-10.6,1.4-15.1,4
		c-2.8-2.3-6.8-6.2-9.4-11.4c-2.3,8.5-0.3,14.7,1.7,18.3c-3,4.1-4.8,9.4-4.8,15.7c0.1,16.5,12.6,24.7,26.9,24.7
		c14.7,0,27.6-8.3,27.6-25.8c0-5.4-1.3-9.9-3.5-13.6C199.3,101.5,202.1,94.8,199.5,85.4z M174.5,138.7c-7,0-10.9-9.2-10.9-21.8
		c0-13.1,4.3-18.5,9.6-18.5c6.8,0,10.2,10.1,10.3,21.7C183.6,130.9,181.4,138.7,174.5,138.7z"/>
</g>
</svg>
